<svg xmlns="http://www.w3.org/2000/svg" viewBox="0 0 400 300"><circle cx="200" cy="150" r="126" fill="var(--soft)"/><path d="M200 36c42 30 58 82 46 138h-92c-12-56 4-108 46-138z" fill="var(--accent)"/><circle cx="200" cy="112" r="24" fill="var(--paper)"/><circle cx="200" cy="112" r="14" fill="var(--accent2)"/><path d="M154 150l-34 42v24l40-18z" fill="var(--accent2)"/><path d="M246 150l34 42v24l-40-18z" fill="var(--accent2)"/><path d="M176 178h48l-8 30h-32z" fill="var(--muted)"/><path d="M184 208h32c0 26-8 42-16 56c-8-14-16-30-16-56z" fill="var(--accent2)"/><circle cx="92" cy="86" r="7" fill="var(--accent)"/><circle cx="316" cy="70" r="10" fill="var(--accent2)"/><circle cx="330" cy="200" r="6" fill="var(--accent)"/></svg>
